/kaggle/working/opencap-processing/OpenCapData_ab7eb7cf-817d-4035-a30b-ee68773906cb/OpenSimData/Dynamics/Suhasno_3/GRF_resultant_Suhasno_3_Suhasno_3_window_2.mot
version=1
nRows=20
nColumns=19
inDegrees=yes
endheader 
time	ground_force_right_vx	ground_force_right_vy	ground_force_right_vz	ground_force_right_px	ground_force_right_py	ground_force_right_pz	ground_torque_right_x	ground_torque_right_y	ground_torque_right_z	ground_force_left_vx	ground_force_left_vy	ground_force_left_vz	ground_force_left_px	ground_force_left_py	ground_force_left_pz	ground_torque_left_x	ground_torque_left_y	ground_torque_left_z	
          2.00000000	          0.01558534	          0.01822467	         -0.01445864	          1.71099304	          0.00000000	         -0.09567139	          0.00000000	          0.00000001	          0.00000000	         55.84015768	        577.85161356	         62.28894934	          1.98212024	          0.00000000	         -0.22894921	          0.00000000	         -0.61027944	          0.00000000	
          2.05000000	          0.04679383	          0.04426864	         -0.03032523	          1.72728970	          0.00000000	         -0.02244536	          0.00000000	         -0.00000365	          0.00000000	         78.26260788	        628.38463025	         71.85624747	          1.98536781	          0.00000000	         -0.22953078	          0.00000000	          0.30681473	          0.00000000	
          2.10000000	          5.00380582	          4.85129377	         -3.59242765	          1.70813254	          0.00000000	          0.01115675	          0.00000000	         -0.00000009	          0.00000000	         95.06871519	        578.90355258	         60.59524781	          1.98952819	          0.00000000	         -0.22888502	          0.00000000	          0.48255096	          0.00000000	
          2.15000000	         -0.75652675	          8.59777385	         -9.12252243	          1.70015419	          0.00000000	          0.04199300	          0.00000000	         -0.00000000	          0.00000000	         69.22756966	        432.12991556	         15.26933607	          1.98702866	          0.00000000	         -0.22899316	          0.00000000	          0.21106535	          0.00000000	
          2.20000000	         -5.12070680	          4.07186653	         -2.44130168	          1.73135349	          0.00000000	          0.07081651	          0.00000000	         -0.00000000	          0.00000000	         79.83040973	        583.16646308	         44.05065905	          1.98759062	          0.00000000	         -0.23012242	          0.00000000	         -0.42896320	          0.00000000	
          2.25000000	         -0.07026896	          0.04395384	         -0.01158130	          1.80218466	          0.00000000	          0.09103458	          0.00000000	         -0.00000000	          0.00000000	         97.50238015	        633.51684797	         38.50823888	          1.99048177	          0.00000000	         -0.23202342	          0.00000000	         -4.66258672	          0.00000000	
          2.30000000	         -0.00012962	          0.00007269	         -0.00000939	          1.89855858	          0.00000000	          0.09874226	          0.00000000	         -0.00000000	          0.00000000	         71.28911538	        474.49487916	         37.58347049	          1.99742763	          0.00000000	         -0.23475264	          0.00000000	         -3.54505719	          0.00000000	
          2.35000000	         -0.00001032	          0.00000520	         -0.00000065	          2.00966032	          0.00000000	          0.10455978	          0.00000000	         -0.00000000	          0.00000000	         43.14030360	        458.71792400	         45.19602075	          2.00175986	          0.00000000	         -0.23779399	          0.00000000	         -2.18836981	          0.00000000	
          2.40000000	         -0.00003532	          0.00001558	         -0.00000196	          2.12269140	          0.00000000	          0.10441692	          0.00000000	         -0.00000000	          0.00000000	         31.23768600	        683.16650285	         63.79763993	          2.00385557	          0.00000000	         -0.23916294	          0.00000000	          1.03717379	          0.00000000	
          2.45000000	         -0.12788172	          0.05673234	         -0.00545978	          2.08277621	          0.00000000	          0.06951658	          0.00000000	         -0.00000026	          0.00000000	         61.85578545	        614.41262395	         57.84876297	          2.01302855	          0.00000000	         -0.24014213	          0.00000000	          0.04643983	          0.00000000	
          2.50000000	        -18.10977164	          9.83828678	          0.52879117	          2.18289470	          0.00000000	          0.07478382	          0.00000000	          0.00000010	          0.00000000	         28.10337913	        394.35130549	         41.79086769	          2.03264099	          0.00000000	         -0.24164759	          0.00000000	         -0.71050293	          0.00000000	
          2.55000000	        -87.26265792	         65.90111582	         14.28070948	          2.25574069	          0.00000000	          0.07114822	          0.00000000	         -0.00000584	          0.00000000	        135.64155097	        603.50523636	         61.54802258	          2.04453683	          0.00000000	         -0.23675298	          0.00000000	         -2.40967371	          0.00000000	
          2.60000000	        -50.39909166	        131.80096723	         19.77824644	          2.28806994	          0.00000000	          0.06570628	          0.00000000	         -0.00528909	          0.00000000	        155.05863146	        512.87976948	         26.02393766	          2.05826194	          0.00000000	         -0.22697731	          0.00000000	         -3.03073344	          0.00000000	
          2.65000000	         -3.27120369	        151.99090055	        -13.60760468	          2.29726379	          0.00000000	          0.06499392	          0.00000000	         -0.02474090	          0.00000000	         55.30244906	        399.99953813	         21.84757746	          2.07461012	          0.00000000	         -0.21748916	          0.00000000	         -3.73161527	          0.00000000	
          2.70000000	        -23.56805729	        292.22132727	          3.92422945	          2.31187351	          0.00000000	          0.07026925	          0.00000000	         -0.92974599	          0.00000000	        147.53375657	        414.41236559	         -2.01117517	          2.08884275	          0.00000000	         -0.21069226	          0.00000000	         -1.98708308	          0.00000000	
          2.75000000	        -13.55956900	        318.19859947	         -2.47993956	          2.33143755	          0.00000000	          0.07558337	          0.00000000	         -2.50484563	          0.00000000	        100.87896178	        204.47257160	        -23.00784472	          2.09646305	          0.00000000	         -0.20824968	          0.00000000	         -0.03322708	          0.00000000	
          2.80000000	         99.24278750	        481.31012486	        -38.75645367	          2.33604453	          0.00000000	          0.08021706	          0.00000000	         -5.26173016	          0.00000000	        -29.91711395	         32.72463056	         12.19144010	          2.09812664	          0.00000000	         -0.20618458	          0.00000000	         -0.00069077	          0.00000000	
          2.85000000	        117.04661276	        515.44029130	        -24.76488284	          2.34053683	          0.00000000	          0.08823646	          0.00000000	         -3.80889075	          0.00000000	          0.01472257	         -0.01070633	          0.00021661	          0.00000000	          0.00000000	          0.00000000	          0.00000000	         -0.00359058	          0.00000000	
          2.90000000	        128.60379456	        134.08003061	        -53.82221448	          2.41010595	          0.00000000	          0.10037728	          0.00000000	          0.25853482	          0.00000000	         -0.02521387	          0.01481709	         -0.00160957	          2.23338623	          0.00000000	         -0.20882334	          0.00000000	          0.00000000	          0.00000000	
          2.95000000	        113.88522803	        585.79197080	         -2.05220459	          2.40698628	          0.00000000	          0.10501929	          0.00000000	          6.71439783	          0.00000000	         -4.61881166	          2.11430123	          0.40730314	          2.33947608	          0.00000000	         -0.21202525	          0.00000000	         -0.00000002	          0.00000000	
